Coordinates
version=1
nRows=11
nColumns=36
inDegrees=yes

Units are S.I. units (second, meters, Newtons, ...)
If the header above contains a line with 'inDegrees', this indicates whether rotational values are in degrees (yes) or radians (no).

endheader
time	pelvis_tilt	pelvis_list	pelvis_rotation	pelvis_tx	pelvis_ty	pelvis_tz	hip_flexion_r	hip_adduction_r	hip_rotation_r	knee_angle_r	knee_angle_r_beta	ankle_angle_r	subtalar_angle_r	mtp_angle_r	hip_flexion_l	hip_adduction_l	hip_rotation_l	knee_angle_l	knee_angle_l_beta	ankle_angle_l	subtalar_angle_l	mtp_angle_l	lumbar_extension	lumbar_bending	lumbar_rotation	arm_flex_r	arm_add_r	arm_rot_r	elbow_flex_r	pro_sup_r	arm_flex_l	arm_add_l	arm_rot_l	elbow_flex_l	pro_sup_l
      0.00000000	     -0.73591045	      2.49416533	     92.28388885	     -0.14228094	      0.93295628	      1.09207338	     25.84590257	     -0.79916838	    -16.80541419	     15.29582451	      0.26696250	      3.33655431	      8.94429827	     -7.44079137	    -14.75618279	      4.05695366	    -11.65148368	     19.02421357	      0.33203516	     12.09705924	      9.18471248	     -7.44079137	    -14.76847447	      0.76205564	     -4.85140621	     -5.54706213	     -2.09181923	    -28.82981447	     65.50969353	     84.32269347	     11.02208166	    -13.15638790	    -14.81114404	     48.92627665	     86.57259976
      0.01000000	     -0.51082636	      2.74911363	     92.26705656	     -0.14202412	      0.93157362	      1.07605148	     25.22253958	     -0.27816604	    -16.10321515	     16.18066003	      0.28240579	      3.17097797	      8.42256423	     -7.46267652	    -15.40373589	      3.55018476	    -11.60218611	     20.26059040	      0.35361401	     10.88585217	      9.08223150	     -7.46267652	    -14.63278561	      1.09568242	     -4.69731824	     -5.94877251	     -2.23657397	    -29.19296203	     65.39360082	     87.98067235	     10.76008552	    -12.82353316	    -15.30237508	     49.07817473	     88.79291587
      0.02000000	     -0.30934438	      3.07270646	     92.26065948	     -0.14181689	      0.93037795	      1.05970796	     24.47574066	      0.19390300	    -15.36481832	     17.15812643	      0.29946580	      1.29378123	      7.68931664	     -7.46761587	    -16.07351347	      3.09186199	    -11.33035911	     21.56863916	      0.37644377	      9.25316554	      8.38502971	     -7.46761587	    -14.51137756	      1.38100634	     -4.56115499	     -6.41372371	     -2.53217435	    -28.97964391	     65.20227702	     86.19976930	     10.37306259	    -12.54961825	    -15.25990445	     49.26369346	     86.65064102
      0.03000000	     -0.05781138	      3.27737480	     92.12237971	     -0.14146567	      0.92935303	      1.04370096	     24.04261027	      0.70313739	    -14.36803188	     18.16086045	      0.31696681	     -1.59583647	      5.88116138	     -7.47242563	    -16.43260864	      2.59673646	    -11.19952765	     23.12643535	      0.40363244	      7.07900384	      7.28265366	     -7.47242563	    -14.30966623	      1.74880291	     -4.32668285	     -6.74109527	     -2.80679865	    -28.92109912	     64.95032858	     85.72297839	      9.90237895	    -12.21480866	    -15.42478934	     49.40525842	     85.70718430
      0.04000000	      0.02545720	      3.34927836	     91.90190271	     -0.14103129	      0.92854686	      1.02818848	     23.94275684	      1.03925153	    -12.84067001	     19.45495039	      0.33955294	     -2.87461311	      3.82795296	     -7.48354979	    -16.33227330	      2.35164793	    -10.76148360	     25.15318151	      0.43900583	      4.43265750	      5.64093939	     -7.48354979	    -14.03580177	      1.89969951	     -4.02036759	     -6.89317741	     -2.99813601	    -29.10637767	     64.46918316	     88.31243569	      9.55045786	    -11.73350219	    -16.33056412	     49.37741863	     89.14085372
      0.05000000	      0.26158165	      3.54947243	     91.64961987	     -0.14034032	      0.92871170	      1.01306635	     23.64891816	      1.52508675	    -11.39384414	     20.84159698	      0.36375449	     -3.40302436	      1.98881274	     -7.48695702	    -16.08215817	      1.90269537	    -10.34479412	     27.56498715	      0.48109978	      1.67362893	      4.18068089	     -7.48695702	    -14.03977641	      2.16970454	     -3.59853152	     -6.96500872	     -3.20388139	    -29.03636890	     64.01557615	     85.26365192	      9.31246001	    -11.17561628	    -16.65305433	     49.30207240	     85.48704048
      0.06000000	      0.75151887	      3.64498125	     91.34542291	     -0.13897836	      0.92939857	      0.99812778	     23.22894809	      2.37855057	     -9.97534881	     21.87027467	      0.38170830	     -4.07388738	     -1.32915763	     -7.49276841	    -15.33968679	      1.04300378	    -10.38413662	     30.46616440	      0.53173488	     -2.10351109	      2.82238778	     -7.49276841	    -13.93849456	      2.65165036	     -3.18351787	     -6.75608770	     -3.31733759	    -29.24245499	     63.08830613	     89.04822324	      8.96990882	    -10.76649631	    -17.58290847	     49.08631239	     89.19759677
      0.07000000	      1.32543628	      3.90940221	     91.25170373	     -0.13797086	      0.93058076	      0.98341049	     22.63844809	      3.26261535	     -8.87125579	     23.03618641	      0.40205730	     -3.80180059	     -3.21436554	     -7.49655951	    -14.43776257	      0.00665328	    -10.16226985	     33.71088321	      0.58836591	     -6.55040482	      1.50900242	     -7.49655951	    -14.09688719	      3.25977689	     -2.88212801	     -6.58312424	     -3.48736987	    -29.21776620	     62.37335055	     88.65913678	      8.67177614	    -10.32054794	    -18.41231277	     48.93839322	     91.48784906
      0.08000000	      1.82948527	      4.02110002	     91.26700631	     -0.13700277	      0.93137063	      0.96891814	     22.22548849	      4.14884013	     -7.49780750	     24.26830547	      0.42356183	     -3.26311646	     -4.89816736	     -7.49828084	    -13.13478040	     -0.94153895	     -9.58735601	     37.16703182	      0.64868708	    -11.50282661	      0.10902858	     -7.49828084	    -14.07312187	      3.77243477	     -2.70064630	     -6.41788798	     -3.55603350	    -29.27989133	     61.75106694	     88.84896292	      8.30730530	     -9.93517893	    -19.04695451	     48.84146887	     91.99365325
      0.09000000	      2.25620187	      4.29231349	     91.32595323	     -0.13617408	      0.93229293	      0.95453487	     21.62705256	      4.85565317	     -6.60765352	     25.60115592	      0.44682446	     -1.68565457	     -5.39477356	     -7.49838658	    -11.83691484	     -1.92670200	     -9.12861559	     40.63744080	      0.70925714	    -15.51322133	     -0.30712726	     -7.49838658	    -14.25701888	      4.19913153	     -2.44511962	     -6.40351401	     -3.70705509	    -29.18481380	     61.44835372	     87.96427178	      7.94524009	     -9.69207727	    -19.13065307	     48.85922715	     90.98077257
      0.10000000	      2.84543436	      4.58046733	     91.51554155	     -0.13657577	      0.93358355	      0.94050467	     20.66697797	      5.69602367	     -5.72843451	     26.16781432	      0.45671452	     -1.07966655	     -7.40784421	     -7.49848223	    -10.49305855	     -2.76137448	     -7.99388096	     43.88800059	      0.76599011	    -18.61964812	     -2.42054337	     -7.49848223	    -14.48270995	      4.98606840	     -2.32053991	     -6.33237425	     -4.02060377	    -29.12683129	     61.30578516	     87.65440764	      7.69043635	     -9.05469237	    -19.66975123	     48.53397625	     90.48919642
